<svg id="Layer_1" data-name="Layer 1" xmlns="http://www.w3.org/2000/svg" viewBox="0 0 506.57 508.87"><defs><style>.cls-1,.cls-2{fill:#fff;}.cls-1,.cls-2,.cls-3,.cls-4,.cls-5{stroke:#000;}.cls-1,.cls-2,.cls-3,.cls-4,.cls-5,.cls-6,.cls-7,.cls-8,.cls-9{stroke-miterlimit:10;}.cls-1{stroke-width:5px;}.cls-2,.cls-8{stroke-width:6px;}.cls-3,.cls-9{stroke-width:8px;}.cls-4{fill:#0d0d0e;}.cls-5{fill:#0e0f0f;}.cls-6,.cls-7,.cls-8,.cls-9{fill:none;stroke:#0d0d0e;}.cls-6{stroke-width:10px;}.cls-7{stroke-width:7px;}</style></defs><path class="cls-1" d="M603.5,495.5c4-11,12-24.31,9-53-3-29-8-25-2-31,4.53-4.53,12-12.18,17,18,7,42-1,59,0,61m12-9c3,2,6.5,5.5,9.93,8.77,2.07,2.23,2.7,2.52,1.14,4.91-17.64,27-60,26.85-77.36-.2-1.47-2.29-1.2-3.36,1.11-4.57a96.59,96.59,0,0,0,9.48-5.55c2.65-1.79,4.82-5.52,6.7-2.36,3,3,13.93,12.06,16.5,3.5,2.64-8.78,3.74-6.41-3.26-11.76-11.15-8.54-23-15.88-36.31-20.6-26.2-9.27-50-3.17-67.07,18.73-24.88,31.88-30.85,68.81-26.95,108.07.33,3.38,2.5,3.83,4.95,4.37a280,280,0,0,1,36.35,10.59,970,970,0,0,1,165.08,79.65c3.28,2,5.65,2.14,9,.26A111,111,0,0,0,724,644c25.63-34.76,33-73.49,24.53-115.5-4.62-23.05-13-44.35-29.74-61.56-9.07-9.35-19.92-15.45-33.1-16.93-19.47-2.17-36.17,5.24-52.21,15a4.32,4.32,0,0,0-2.22,3.67c-.4,7.18-.49,13.1-2.74,19.87C627.8,490.62,638.5,480.5,639.5,481.5ZM687.39,702c-1.46,5-2.59,9.53-4.08,13.91s-1,11.37-4.92,12.93c-3.58,1.44-9-1.88-13.69-3-2.75-.64-3.35-2-2.54-4.67,2.47-8.1,4.55-16.33,7.23-24.37,1.29-3.9.82-5.91-3-8.17A1024.18,1024.18,0,0,0,522.3,618.12c-4-1.6-5-.36-6,3.17-5.81,20.63-11.79,41.21-17.75,61.79-1.15,4-1.33,9.48-4,11.45-3.2,2.34-7.94-1.72-12.12-2.21-5.36-.63-5.5-3-4.13-7.57,7.12-23.71,13.88-47.54,20.86-71.3.57-2,1.16-3.22-1.5-4-18-5.44-36.13-10.43-55.11-11.07-19.31-.66-33.24,7.45-41.45,25.22A167.78,167.78,0,0,0,387.4,670.3c-2.76,19.16,4,33.92,20.93,43.82a130,130,0,0,0,16.95,8.46c41.12,16.73,84.72,22.27,128.21,28.34,2.2.31,3.21-.33,3.78-2.63,1.49-5.95,3.31-11.83,5-17.73,4.24-14.63,4.23-14.57,18.7-9.85,2.57.84,3.42,1.6,2.48,4.51-2.53,7.91-4.43,16-7,23.91-1.1,3.42-.19,4.25,3.06,4.47,8.14.55,16.26,1.43,24.39,2,31.26,2.3,62.54,3.7,93.82.47,9.76-1,19.5-2.36,28.7-6.09,7.52-3,8.35-5.37,3.54-11.74C718.54,723.14,703,712.85,687.39,702ZM394.27,599.45c5.31-6,10.82-10.86,17.67-13.63,3.45-1.39,4.08-3.46,4.07-6.82-.1-38.13-.16-76.26.06-114.39,0-4.69-1.48-5.35-5.64-5.34q-69.18.23-138.37,0c-4.06,0-5.31.91-5.28,5.13.18,32.8.1,65.61.1,98.41,0,7.86,0,7.84,8,7.58a109.24,109.24,0,0,1,18.43,1.06c1.87.26,6.52,1.55,6.08,0s-5.3-11.18-6.88-17.13c-4.67-17.64,0-33.65,12.55-42.67,15.1-10.86,41.13-9.19,54.75,3.54,11.67,10.92,17.89,25.06,23.06,39.72C387.93,569.18,391.36,583.85,394.27,599.45Zm40.45-117.21c0,30.81,0,61.62-.06,92.43,0,3.63.41,5.76,4.82,5,2.25-.42,4.65,0,7,.09,8,.43,7.83.46,7.32-7.8-1.91-31.18,3.52-61,17.39-89.06,11.53-23.3,27.95-41.68,54-49.26,2.91-.84,2.81-2.68,2.81-4.92,0-13-.2-26,.08-39,.09-4.1-1.26-4.9-5.06-4.88q-41.72.23-83.43,0c-4,0-4.92,1.17-4.9,5C434.79,420.63,434.72,451.43,434.72,482.24Zm-93.58-41.57c23.49,0,47,0,70.47,0,2.92,0,4.48-.29,4.43-4-.22-16-.18-32,0-48,0-3.09-.85-3.93-3.92-3.92q-70.71.14-141.44,0c-3.14,0-3.88.88-3.85,3.92.15,15.66.19,31.32,0,47-.05,3.82.83,5.07,4.88,5C294.83,440.56,318,440.67,341.14,440.67ZM276.25,366c1.61.08,2.23.14,2.85.14q69.18,0,138.36.07a5.9,5.9,0,0,0,5.28-2.82c12.42-16.69,24.94-33.3,37.4-50,.63-.84,2.86-2.94,1-3.18q-70.28,0-140.73,0a4.24,4.24,0,0,0-3.77,1.89C303.39,329.78,290.11,347.46,276.25,366ZM397,254.22c-23.33,0-46.66.06-70-.07-3.21,0-4.31.75-4.24,4.12.23,9.82.16,19.66,0,29.49,0,2.7.59,3.73,3.56,3.73q70.74-.14,141.47,0c3.43,0,4.19-1.22,4.14-4.36-.17-9.33-.26-18.67,0-28,.13-4-1.06-5-5-5C443.67,254.31,420.34,254.22,397,254.22ZM518.28,366a.11.11,0,0,0,.09-.17c-12.06-16.09-23.6-31.4-35-46.8-1.94-2.62-2.86-1.55-4.3.4Q466,337.07,452.77,354.6c-2.69,3.59-5.41,7.17-8.47,11.23a.11.11,0,0,0,.08.17Z" transform="translate(-247.78 -251.62)"/><path class="cls-2" d="M678.87,440.12c-16.68,3.65-31.11-.2-43.61-11.57C631.34,425,630.4,421,632.13,416c10.94-32,51.87-42,76.33-18.73,4,3.77,5.16,7.83,3.19,13C705.74,425.88,694.76,435.79,678.87,440.12Z" transform="translate(-247.78 -251.62)"/><path class="cls-3" d="M675.81,424.05c-9.53,2.14-17.51,1.11-24.1-3.1-2.07-1.32-2.45-2.92-1.28-5.07,7.39-13.62,30.81-19.34,43.68-10.66,2.09,1.4,2.6,3,1.3,5.25C691.48,417.14,684.92,421.65,675.81,424.05Z" transform="translate(-247.78 -251.62)"/><path class="cls-4" d="M628,487c1.26-7,3-20,5.46-22.47,16-9.74,32.74-17.15,52.21-15,13.18,1.47,24,7.57,33.1,16.92,16.69,17.21,25.12,38.51,29.74,61.57,8.43,42,1.1,80.73-24.53,115.49a110.92,110.92,0,0,1-35.18,31.33c-3.36,1.89-5.73,1.72-9-.26A970,970,0,0,0,514.71,595a281.52,281.52,0,0,0-36.35-10.59c-2.45-.54-4.62-1-4.95-4.37-3.9-39.26,2.07-76.19,26.95-108.06,17.1-21.91,40.87-28,67.07-18.73,13.33,4.72,25.16,12.05,36.31,20.59,6.26,4.2,5.76,2.7,2.76,12.7-3,7-1.66,10.22-9.42,5.43a20,20,0,0,1-6.91-6.4c-1.88-3.16-3.72-2.9-6.37-1.11a96.59,96.59,0,0,1-9.48,5.55c-2.31,1.21-2.58,2.28-1.11,4.57,17.33,27.06,59.72,27.17,77.36.2,1.56-2.39,1.41-3.58-1.14-4.91-3.84-2-7.28-5.1-11.32-6.26C635.5,483.5,630.5,487.5,628,487Z" transform="translate(-247.78 -251.62)"/><path class="cls-4" d="M687.39,702.56c15.59,10.85,31.15,21.15,42.6,36.28,4.81,6.36,4,8.68-3.54,11.73-9.2,3.73-18.94,5.08-28.7,6.09-31.28,3.23-62.56,1.83-93.82-.47-8.13-.6-16.25-1.48-24.39-2-3.25-.22-4.16-1-3.06-4.47,2.55-7.89,4.45-16,7-23.91.94-2.91.09-3.67-2.48-4.51-14.47-4.72-14.46-4.78-18.7,9.86-1.7,5.9-3.52,11.77-5,17.73-.57,2.3-1.58,2.93-3.78,2.62-43.49-6.07-87.09-11.61-128.21-28.34a130,130,0,0,1-16.95-8.46c-16.89-9.9-23.69-24.66-20.93-43.81a167.74,167.74,0,0,1,13.69-46.74c8.21-17.77,22.14-25.87,41.45-25.22,19,.64,37.09,5.63,55.11,11.08,2.66.8,2.07,2.07,1.5,4-7,23.76-13.74,47.58-20.86,71.3-1.37,4.55-1.23,6.93,4.13,7.56,4.18.5,8.92,4.55,12.12,2.21,2.69-2,2.87-7.47,4-11.45,6-20.58,11.94-41.16,17.75-61.79,1-3.53,1.94-4.77,6-3.17a1024.18,1024.18,0,0,1,144.09,70.55c3.82,2.26,4.29,4.28,3,8.18-2.68,8-4.76,16.26-7.23,24.36-.81,2.65-.21,4,2.54,4.67,4.66,1.08,10.11,4.4,13.69,3,3.91-1.56,3.39-8.42,4.92-12.93S685.93,707.59,687.39,702.56Z" transform="translate(-247.78 -251.62)"/><path class="cls-5" d="M278.7,589.7c12.07.22,23.76,2.8,35.34,6,1.77.49,3.53,1,5.3,1.44a9,9,0,0,0,10.47-3.83c2.58-3.73,2.27-7.61-.51-11.12a142.14,142.14,0,0,1-11.59-16.24c-4.5-7.68-8.07-15.7-8-24.85.1-8.92,4.35-14.45,13.05-16.44s21.87-.92,29.51,10.62c10.12,15.28,15.2,32.41,19.63,49.83,1.51,6,3.56,13.42,3.91,18,6.36,19.13-6.35,55.4-13.94,64.55-14.1,16.29-29.29,31.43-47,43.85a99.29,99.29,0,0,1-16.1,9c-11.4,5.16-21.2,1.83-29.94-5.79-7.28-6.34-8-14.85-2.56-22.87,5.15-7.53,12.67-12.12,20.58-16.19a106,106,0,0,1,14.75-6c6.2-2.08,9.12-5.16,9.17-9.75s-3.11-8.11-9.57-10c-11.53-3.33-22.75-7.42-33.27-13.26-5.26-2.92-10.21-6.3-14.12-11-11.19-13.37-4.71-31.53,12.45-34.87A46.58,46.58,0,0,1,278.7,589.7Z" transform="translate(-247.78 -251.62)"/><path class="cls-4" d="M394.27,600c-2.91-15.6-6.34-30.27-11.36-44.49-5.17-14.67-11.39-28.81-23.06-39.73-13.62-12.73-39.65-14.4-54.75-3.54-12.55,9-17.22,25-12.55,42.67,1.58,6,9.06,11.29,6.88,17.13-.88,2.36-18.33-1.3-24.51-1.1-8,.26-8,.29-8-7.58,0-32.8.08-65.6-.1-98.4,0-4.23,1.22-5.15,5.28-5.14q69.19.23,138.37,0c4.16,0,5.67.64,5.64,5.34-.22,38.12-.16,76.25-.06,114.38,0,3.36-.62,5.43-4.07,6.83C405.09,589.15,399.58,594,394.27,600Z" transform="translate(-247.78 -251.62)"/><path class="cls-4" d="M434.72,482.8c0-30.8.07-61.61-.08-92.42,0-3.85.88-5,4.9-5q41.71.27,83.43,0c3.8,0,5.15.79,5.06,4.88-.28,13-.12,26-.08,39,0,2.24.1,4.08-2.81,4.93-26,7.57-42.44,25.95-54,49.25-13.87,28-19.3,57.88-17.39,89.06.51,8.26.64,8.23-7.32,7.8-2.33-.12-4.73-.5-7-.09-4.41.81-4.83-1.32-4.82-4.95C434.77,544.42,434.72,513.61,434.72,482.8Z" transform="translate(-247.78 -251.62)"/><path class="cls-4" d="M341.14,441.23c-23.16,0-46.31-.1-69.47.1-4.05,0-4.93-1.22-4.88-5,.21-15.66.17-31.32,0-47,0-3,.71-3.93,3.85-3.92q70.72.15,141.44,0c3.07,0,3.95.84,3.92,3.92-.16,16-.2,32,0,48,0,3.68-1.51,4-4.43,4C388.12,441.2,364.63,441.23,341.14,441.23Z" transform="translate(-247.78 -251.62)"/><path class="cls-4" d="M277.92,364.28c13.26-17.68,26-34.65,38.7-51.64a4.74,4.74,0,0,1,3.8-1.9q70.4,0,140.7,0h0c.89,1.61-.36,2.34-1,3.18-12.46,16.65-25,33.27-37.4,49.95a5.9,5.9,0,0,1-5.28,2.82q-69.18-.12-138.36-.07h0A1.48,1.48,0,0,1,277.92,364.28Z" transform="translate(-247.78 -251.62)"/><path class="cls-4" d="M397,254.78c23.33,0,46.66.09,70-.09,4,0,5.15,1,5,5-.29,9.33-.2,18.66,0,28,.05,3.14-.71,4.37-4.14,4.37q-70.73-.17-141.47,0c-3,0-3.59-1-3.56-3.73.13-9.83.2-19.67,0-29.49-.07-3.37,1-4.14,4.24-4.12C350.35,254.84,373.68,254.78,397,254.78Z" transform="translate(-247.78 -251.62)"/><path class="cls-4" d="M518.49,366.56H450.33a3.07,3.07,0,0,1-2.45-4.91c1.69-2.23,3.29-4.36,4.89-6.49Q465.93,337.6,479,320c1.44-1.94,2.36-3,4.3-.4C494.81,335,506.39,350.41,518.49,366.56Z" transform="translate(-247.78 -251.62)"/><path class="cls-6" d="M588,484c24,27,43.78,7.94,53-2" transform="translate(-247.78 -251.62)"/><path class="cls-7" d="M628,492c4-26,.5-71.5-10.5-84.5" transform="translate(-247.78 -251.62)"/><path class="cls-8" d="M610,494c4-26,10-42-1-80" transform="translate(-247.78 -251.62)"/><line class="cls-9" x1="370.72" y1="157.88" x2="361.72" y2="165.88"/></svg>