<svg id="Layer_1" data-name="Layer 1" xmlns="http://www.w3.org/2000/svg" viewBox="0 0 551.13 551.23"><defs><style>.cls-1,.cls-2{fill:#fff;}.cls-1,.cls-2,.cls-3,.cls-4,.cls-5{stroke:#000;}.cls-1,.cls-2,.cls-3,.cls-4,.cls-5,.cls-6,.cls-7{stroke-miterlimit:10;}.cls-1{stroke-width:10px;}.cls-2,.cls-3,.cls-6{stroke-width:8px;}.cls-4{fill:#0d0d0e;}.cls-5{fill:#0e0f0f;}.cls-6,.cls-7{fill:none;stroke:#0d0d0e;}.cls-7{stroke-width:4px;}</style></defs><path class="cls-1" d="M626,446.44c9.67-5,28.93-12.8,39.68-14.49,33-5.19,58.14,8,77.15,34.23,13.22,18.24,20.52,39.05,24.53,61.06,4.85,26.57,4.72,53-3.37,79-10.49,33.66-29.23,61.39-58.87,81.2-.8.53-1.49,1.23-2.56,2.12a304.48,304.48,0,0,1,25.93,19.88c6.52,5.73,12.75,11.74,17.53,19.07,10.43,16,6.56,29.84-10.69,38-11.79,5.59-24.52,7.42-37.29,8.44-53.08,4.26-105.81-.24-158.4-7.17-34.47-4.54-68.83-9.8-102-20.71-8.35-2.75-16.64-5.83-24.7-9.35-25.76-11.27-35.71-22.37-44.42-48.79-2.1.15-2.9,2-4.09,3.27-14.35,14.92-29.36,29-47.37,39.59a74.68,74.68,0,0,1-18.29,7.82c-22.77,6.13-49.24-9.08-54.12-31.32-2-9.2.05-17.82,4.93-25.82,5-8.16,12-14.16,19.94-19.28,1.36-.88,2.71-1.77,4.72-3.09-8.61-3.81-16.51-7.59-23.59-12.78-10.94-8-19.69-17.57-20.95-31.88-1.23-14,3.1-26,14.17-35,3.25-2.63,4.2-5.21,4.2-9.18-.12-63.81,0-127.61-.17-191.42a21.22,21.22,0,0,1,4.65-13.73c16.43-21.6,32.61-43.39,48.94-65.07a11.89,11.89,0,0,0,2.57-7.76c-.14-15.49-.09-31-.05-46.48,0-8,3.22-11.4,11.14-11.4q82.22-.09,164.44,0c7.85,0,11.09,3.44,11.13,11.5q.14,23.24,0,46.48a11.91,11.91,0,0,0,2.59,7.76c16.67,22.05,33.19,44.21,49.85,66.26a17.27,17.27,0,0,1,3.74,11.05c-.11,16,0,32,0,48,0,2.07-.65,4.29,2.87,4.52,21.82,1.43,40.58,10.71,58.19,22.91M605,496c4-11,7-27,3-55.56-3-21.64-7-33-10-44-3.73-13.68-10-21-2-24a43.28,43.28,0,0,1,11-2c6,0,13,28.38,18,58.56,7,42,3,61,4,63m10-9c4,1.15,7,4,10.43,7.27,2.55,1.33,2.7,2.52,1.14,4.91-17.64,27-60,26.85-77.36-.2-1.47-2.29-1.2-3.36,1.11-4.57a96.59,96.59,0,0,0,9.48-5.55c2.65-1.79,4.49-2.05,6.37,1.11a20,20,0,0,0,6.91,6.4C602,495,604.43,494.56,607,486c2.64-8.78,3.74-6.41-3.26-11.76-11.15-8.54-23-15.88-36.31-20.6-26.2-9.27-50-3.17-67.07,18.73-24.88,31.88-30.85,68.81-26.95,108.07.33,3.38,2.5,3.83,4.95,4.37a280,280,0,0,1,36.35,10.59,970,970,0,0,1,165.08,79.65c3.28,2,5.65,2.14,9,.26A111,111,0,0,0,724,644c25.63-34.76,33-73.49,24.53-115.5-4.62-23.05-13-44.35-29.74-61.56-9.07-9.35-19.92-15.45-33.1-16.93-19.47-2.17-36.17,5.24-52.21,15a4.32,4.32,0,0,0-2.22,3.67A145.39,145.39,0,0,1,629,488C628,490,636,482,639,483Zm48.39,219c-1.46,5-2.59,9.53-4.08,13.91s-1,11.37-4.92,12.93c-3.58,1.44-9-1.88-13.69-3-2.75-.64-3.35-2-2.54-4.67,2.47-8.1,4.55-16.33,7.23-24.37,1.29-3.9.82-5.91-3-8.17A1024.18,1024.18,0,0,0,522.3,618.12c-4-1.6-5-.36-6,3.17-5.81,20.63-11.79,41.21-17.75,61.79-1.15,4-1.33,9.48-4,11.45-3.2,2.34-7.94-1.72-12.12-2.21-5.36-.63-5.5-3-4.13-7.57,7.12-23.71,13.88-47.54,20.86-71.3.57-2,1.16-3.22-1.5-4-18-5.44-36.13-10.43-55.11-11.07-19.31-.66-33.24,7.45-41.45,25.22A167.78,167.78,0,0,0,387.4,670.3c-2.76,19.16,4,33.92,20.93,43.82a130,130,0,0,0,16.95,8.46c41.12,16.73,84.72,22.27,128.21,28.34,2.2.31,3.21-.33,3.78-2.63,1.49-5.95,3.31-11.83,5-17.73,4.24-14.63,4.23-14.57,18.7-9.85,2.57.84,3.42,1.6,2.48,4.51-2.53,7.91-4.43,16-7,23.91-1.1,3.42-.19,4.25,3.06,4.47,8.14.55,16.26,1.43,24.39,2,31.26,2.3,62.54,3.7,93.82.47,9.76-1,19.5-2.36,28.7-6.09,7.52-3,8.35-5.37,3.54-11.74C718.54,723.14,703,712.85,687.39,702ZM278.7,589.14a46.58,46.58,0,0,0-12.41,1.08c-17.16,3.34-23.64,21.5-12.45,34.87,3.91,4.67,8.86,8,14.12,11,10.52,5.84,21.74,9.93,33.27,13.26,6.46,1.86,9.62,5.28,9.57,10s-3,7.68-9.17,9.76a104.84,104.84,0,0,0-14.75,6c-7.91,4.07-15.43,8.66-20.58,16.19-5.48,8-4.72,16.52,2.56,22.87,8.74,7.61,18.54,10.94,29.94,5.78a97.8,97.8,0,0,0,16.1-9c17.72-12.41,32.91-27.55,47-43.84,2.82-3.25,6.57-6.35,7.83-10.2,5.74-17.62,13.62-35.76,7.26-54.89-1.93-5.8-3.55-11.52-5.06-17.48-4.43-17.42-9.51-34.55-19.63-49.83-7.64-11.54-20.78-12.62-29.51-10.62s-12.95,7.51-13.05,16.44c-.11,9.15,3.46,17.16,8,24.84A141.38,141.38,0,0,0,329.3,581.6c2.78,3.51,3.09,7.39.51,11.12a9,9,0,0,1-10.47,3.83l-5.3-1.44C302.46,591.94,290.77,589.36,278.7,589.14Zm115.57,10.31c5.31-6,10.82-10.86,17.67-13.63,3.45-1.39,4.08-3.46,4.07-6.82-.1-38.13-.16-76.26.06-114.39,0-4.69-1.48-5.35-5.64-5.34q-69.18.23-138.37,0c-4.06,0-5.31.91-5.28,5.13.18,32.8.1,65.61.1,98.41,0,7.86,0,7.84,8,7.58a109.24,109.24,0,0,1,18.43,1.06c1.87.26,6.52,1.55,6.08,0s-5.3-11.18-6.88-17.13c-4.67-17.64,0-33.65,12.55-42.67,15.1-10.86,41.13-9.19,54.75,3.54,11.67,10.92,17.89,25.06,23.06,39.72C387.93,569.18,391.36,583.85,394.27,599.45Zm40.45-117.21c0,30.81,0,61.62-.06,92.43,0,3.63.41,5.76,4.82,5,2.25-.42,4.65,0,7,.09,8,.43,7.83.46,7.32-7.8-1.91-31.18,3.52-61,17.39-89.06,11.53-23.3,27.95-41.68,54-49.26,2.91-.84,2.81-2.68,2.81-4.92,0-13-.2-26,.08-39,.09-4.1-1.26-4.9-5.06-4.88q-41.72.23-83.43,0c-4,0-4.92,1.17-4.9,5C434.79,420.63,434.72,451.43,434.72,482.24Zm-93.58-41.57c23.49,0,47,0,70.47,0,2.92,0,4.48-.29,4.43-4-.22-16-.18-32,0-48,0-3.09-.85-3.93-3.92-3.92q-70.71.14-141.44,0c-3.14,0-3.88.88-3.85,3.92.15,15.66.19,31.32,0,47-.05,3.82.83,5.07,4.88,5C294.83,440.56,318,440.67,341.14,440.67ZM276.25,366c1.61.08,2.23.14,2.85.14q69.18,0,138.36.07a5.9,5.9,0,0,0,5.28-2.82c12.42-16.69,24.94-33.3,37.4-50,.63-.84,2.86-2.94,1-3.18q-70.28,0-140.73,0a4.24,4.24,0,0,0-3.77,1.89C303.39,329.78,290.11,347.46,276.25,366ZM397,254.22c-23.33,0-46.66.06-70-.07-3.21,0-4.31.75-4.24,4.12.23,9.82.16,19.66,0,29.49,0,2.7.59,3.73,3.56,3.73q70.74-.14,141.47,0c3.43,0,4.19-1.22,4.14-4.36-.17-9.33-.26-18.67,0-28,.13-4-1.06-5-5-5C443.67,254.31,420.34,254.22,397,254.22ZM518.28,366a.11.11,0,0,0,.09-.17c-12.06-16.09-23.6-31.4-35-46.8-1.94-2.62-2.86-1.55-4.3.4Q466,337.07,452.77,354.6c-2.69,3.59-5.41,7.17-8.47,11.23a.11.11,0,0,0,.08.17Z" transform="translate(-224.49 -230.39)"/><path class="cls-2" d="M667.34,423c-17.07-.36-30.21-7.49-39.69-21.46-3-4.39-3-8.46-.11-13,18.14-28.53,60.27-28.72,78.6-.34,3,4.6,3.18,8.82.05,13.41C696.79,415.44,683.8,422.5,667.34,423Z" transform="translate(-224.49 -230.39)"/><path class="cls-3" d="M667.22,409c-11.12-.18-19.67-3.75-25.85-10.74-1.94-2.2-1.94-4.24-.07-6.49,11.81-14.28,39.26-14.38,51.19-.17,1.94,2.3,2.07,4.41,0,6.71C686.4,405.22,677.94,408.75,667.22,409Z" transform="translate(-224.49 -230.39)"/><path class="cls-4" d="M628,487c1.26-7,3-20,5.46-22.47,16-9.74,32.74-17.15,52.21-15,13.18,1.47,24,7.57,33.1,16.92,16.69,17.21,25.12,38.51,29.74,61.57,8.43,42,1.1,80.73-24.53,115.49a110.92,110.92,0,0,1-35.18,31.33c-3.36,1.89-5.73,1.72-9-.26A970,970,0,0,0,514.71,595a281.52,281.52,0,0,0-36.35-10.59c-2.45-.54-4.62-1-4.95-4.37-3.9-39.26,2.07-76.19,26.95-108.06,17.1-21.91,40.87-28,67.07-18.73,13.33,4.72,25.16,12.05,36.31,20.59,6.26,4.2,5.26,4.2,4.38,14.11-2.57,8.56-3.28,8.81-11,4a20,20,0,0,1-6.91-6.4c-1.88-3.16-3.72-2.9-6.37-1.11a96.59,96.59,0,0,1-9.48,5.55c-2.31,1.21-2.58,2.28-1.11,4.57,17.33,27.06,59.72,27.17,77.36.2,1.56-2.39,1.41-3.58-1.14-4.91-3.84-2-7.28-5.1-11.32-6.26C633.5,481.5,626,488,628,487Z" transform="translate(-224.49 -230.39)"/><path class="cls-4" d="M687.39,702.56c15.59,10.85,31.15,21.15,42.6,36.28,4.81,6.36,4,8.68-3.54,11.73-9.2,3.73-18.94,5.08-28.7,6.09-31.28,3.23-62.56,1.83-93.82-.47-8.13-.6-16.25-1.48-24.39-2-3.25-.22-4.16-1-3.06-4.47,2.55-7.89,4.45-16,7-23.91.94-2.91.09-3.67-2.48-4.51-14.47-4.72-14.46-4.78-18.7,9.86-1.7,5.9-3.52,11.77-5,17.73-.57,2.3-1.58,2.93-3.78,2.62-43.49-6.07-87.09-11.61-128.21-28.34a130,130,0,0,1-16.95-8.46c-16.89-9.9-23.69-24.66-20.93-43.81a167.74,167.74,0,0,1,13.69-46.74c8.21-17.77,22.14-25.87,41.45-25.22,19,.64,37.09,5.63,55.11,11.08,2.66.8,2.07,2.07,1.5,4-7,23.76-13.74,47.58-20.86,71.3-1.37,4.55-1.23,6.93,4.13,7.56,4.18.5,8.92,4.55,12.12,2.21,2.69-2,2.87-7.47,4-11.45,6-20.58,11.94-41.16,17.75-61.79,1-3.53,1.94-4.77,6-3.17a1024.18,1024.18,0,0,1,144.09,70.55c3.82,2.26,4.29,4.28,3,8.18-2.68,8-4.76,16.26-7.23,24.36-.81,2.65-.21,4,2.54,4.67,4.66,1.08,10.11,4.4,13.69,3,3.91-1.56,3.39-8.42,4.92-12.93S685.93,707.59,687.39,702.56Z" transform="translate(-224.49 -230.39)"/><path class="cls-5" d="M278.7,589.7c12.07.22,23.76,2.8,35.34,6,1.77.49,3.53,1,5.3,1.44a9,9,0,0,0,10.47-3.83c2.58-3.73,2.27-7.61-.51-11.12a142.14,142.14,0,0,1-11.59-16.24c-4.5-7.68-8.07-15.7-8-24.85.1-8.92,4.35-14.45,13.05-16.44s21.87-.92,29.51,10.62c10.12,15.28,15.2,32.41,19.63,49.83,1.51,6,2,12.22,3.91,18,6.36,19.13-.37,36.73-6.11,54.35-1.26,3.85-5,6.95-7.83,10.2-14.1,16.29-29.29,31.43-47,43.85a99.29,99.29,0,0,1-16.1,9c-11.4,5.16-21.2,1.83-29.94-5.79-7.28-6.34-8-14.85-2.56-22.87,5.15-7.53,12.67-12.12,20.58-16.19a106,106,0,0,1,14.75-6c6.2-2.08,9.12-5.16,9.17-9.75s-3.11-8.11-9.57-10c-11.53-3.33-22.75-7.42-33.27-13.26-5.26-2.92-10.21-6.3-14.12-11-11.19-13.37-4.71-31.53,12.45-34.87A46.58,46.58,0,0,1,278.7,589.7Z" transform="translate(-224.49 -230.39)"/><path class="cls-4" d="M394.27,600c-2.91-15.6-6.34-30.27-11.36-44.49-5.17-14.67-11.39-28.81-23.06-39.73-13.62-12.73-39.65-14.4-54.75-3.54-12.55,9-17.22,25-12.55,42.67,1.58,6,9.06,11.29,6.88,17.13-.88,2.36-18.33-1.3-24.51-1.1-8,.26-8,.29-8-7.58,0-32.8.08-65.6-.1-98.4,0-4.23,1.22-5.15,5.28-5.14q69.19.23,138.37,0c4.16,0,5.67.64,5.64,5.34-.22,38.12-.16,76.25-.06,114.38,0,3.36-.62,5.43-4.07,6.83C405.09,589.15,399.58,594,394.27,600Z" transform="translate(-224.49 -230.39)"/><path class="cls-4" d="M434.72,482.8c0-30.8.07-61.61-.08-92.42,0-3.85.88-5,4.9-5q41.71.27,83.43,0c3.8,0,5.15.79,5.06,4.88-.28,13-.12,26-.08,39,0,2.24.1,4.08-2.81,4.93-26,7.57-42.44,25.95-54,49.25-13.87,28-19.3,57.88-17.39,89.06.51,8.26.64,8.23-7.32,7.8-2.33-.12-4.73-.5-7-.09-4.41.81-4.83-1.32-4.82-4.95C434.77,544.42,434.72,513.61,434.72,482.8Z" transform="translate(-224.49 -230.39)"/><path class="cls-4" d="M341.14,441.23c-23.16,0-46.31-.1-69.47.1-4.05,0-4.93-1.22-4.88-5,.21-15.66.17-31.32,0-47,0-3,.71-3.93,3.85-3.92q70.72.15,141.44,0c3.07,0,3.95.84,3.92,3.92-.16,16-.2,32,0,48,0,3.68-1.51,4-4.43,4C388.12,441.2,364.63,441.23,341.14,441.23Z" transform="translate(-224.49 -230.39)"/><path class="cls-4" d="M276.25,366.51c13.86-18.49,27.14-36.17,40.38-53.88a4.26,4.26,0,0,1,3.77-1.89q70.41,0,140.73,0c.89,1.62-.36,2.34-1,3.19-12.46,16.65-25,33.27-37.4,49.95a5.9,5.9,0,0,1-5.28,2.82q-69.18-.12-138.36-.07C278.48,366.65,277.86,366.59,276.25,366.51Z" transform="translate(-224.49 -230.39)"/><path class="cls-4" d="M397,254.78c23.33,0,46.66.09,70-.09,4,0,5.15,1,5,5-.29,9.33-.2,18.66,0,28,.05,3.14-.71,4.37-4.14,4.37q-70.73-.17-141.47,0c-3,0-3.59-1-3.56-3.73.13-9.83.2-19.67,0-29.49-.07-3.37,1-4.14,4.24-4.12C350.35,254.84,373.68,254.78,397,254.78Z" transform="translate(-224.49 -230.39)"/><path class="cls-4" d="M518.49,366.56H450.33a3.07,3.07,0,0,1-2.45-4.91c1.69-2.23,3.29-4.36,4.89-6.49Q465.93,337.6,479,320c1.44-1.94,2.36-3,4.3-.4C494.81,335,506.39,350.41,518.49,366.56Z" transform="translate(-224.49 -230.39)"/><path class="cls-6" d="M243.86,581s18.85-10,31.14-10" transform="translate(-224.49 -230.39)"/><path class="cls-6" d="M408,588a108.61,108.61,0,0,1,37-7" transform="translate(-224.49 -230.39)"/><path class="cls-6" d="M444,581c11.39-.87,31,3.9,40,6" transform="translate(-224.49 -230.39)"/><path class="cls-6" d="M520,436s19.36-4.44,32-4" transform="translate(-224.49 -230.39)"/><path class="cls-6" d="M675,673c21.21,13,23.09,14.17,30,19" transform="translate(-224.49 -230.39)"/><path class="cls-7" d="M598,496c6.38,3.77,26.78,1.94,36-8" transform="translate(-224.49 -230.39)"/></svg>